<svg class="icon" viewBox="0 0 1024 1024" version="1.1" xmlns="http://www.w3.org/2000/svg" width="200" height="200">
    <path d="M988.16 380.928c2.048-18.432-11.264-34.816-29.696-36.864h-3.072C837.632 338.944 742.4 378.88 706.56 404.48v-29.696C706.56 229.376 622.592 102.4 564.224 31.744c-24.576-29.696-68.608-34.816-98.304-10.24-3.072 3.072-7.168 6.144-10.24 10.24-58.368 70.656-142.336 197.632-142.336 343.04v27.648c-35.84-26.624-129.024-64.512-245.76-59.392-18.432 1.024-32.768 16.384-31.744 34.816v3.072c11.264 104.448 74.752 411.648 446.464 431.104v179.2c0 15.36 12.288 27.648 27.648 27.648s27.648-12.288 27.648-27.648V812.032c375.808-18.432 439.296-326.656 450.56-431.104z"/>
</svg>